# 3ds Max Wavefront OBJ Exporter v0.97b - (c)2007 guruware
# File Created: 24.10.2017 15:47:10

mtllib 8?8?.mtl

#
# object Gengon001
#

v  9.5659 22.1261 4.0313
v  9.5659 22.1261 -4.0313
v  8.0089 23.3042 -3.1324
v  8.0089 23.3042 3.1324
v  -1.2917 22.1261 -10.2999
v  -1.2917 23.3042 -8.5021
v  -8.2742 22.1261 -6.2686
v  -6.7172 23.3042 -5.3697
v  -8.2742 22.1261 6.2686
v  -6.7172 23.3042 5.3697
v  -1.2917 22.1261 10.2999
v  -1.2917 23.3042 8.5021
v  10.2902 20.5781 -4.4496
v  10.2902 20.5781 4.4496
v  10.2902 19.4035 4.4496
v  10.2902 19.4035 -4.4496
v  -1.2917 20.5781 11.1364
v  -1.2917 19.4035 11.1364
v  -8.9985 20.5781 6.6868
v  -8.9985 19.4035 6.6868
v  -8.9985 20.5781 -6.6868
v  -8.9985 19.4035 -6.6868
v  -1.2917 20.5781 -11.1364
v  -1.2917 19.4035 -11.1364
v  7.2856 14.3214 3.1503
v  7.2856 14.3214 -3.1503
v  -0.9145 14.3214 7.8847
v  -6.3711 14.3214 4.7344
v  -6.3711 14.3214 -4.7344
v  -0.9145 14.3214 -7.8847
v  -0.0000 9.2392 -0.0000
v  0.0000 23.3042 -0.0000
# 32 vertices

vn 0.8115 0.5843 -0.0000
vn 0.6034 0.7975 -0.0000
vn 0.4058 0.5843 -0.7028
vn 0.3017 0.7975 -0.5225
vn -0.4058 0.5843 -0.7028
vn -0.3017 0.7975 -0.5225
vn -0.8115 0.5843 0.0000
vn -0.6034 0.7975 0.0000
vn -0.4058 0.5843 0.7028
vn -0.3017 0.7975 0.5225
vn 0.4058 0.5843 0.7028
vn 0.3017 0.7975 0.5225
vn 0.9800 0.1991 -0.0000
vn 1.0000 0.0000 -0.0000
vn 0.4900 0.1991 0.8487
vn 0.4890 -0.2086 0.8470
vn -0.4900 0.1991 0.8487
vn -0.5000 0.0000 0.8660
vn -0.9800 0.1991 0.0000
vn -0.9780 -0.2086 0.0000
vn -0.4900 0.1991 -0.8487
vn -0.5000 0.0000 -0.8660
vn 0.4900 0.1991 -0.8487
vn 0.4890 -0.2086 -0.8470
vn 0.8608 -0.5089 -0.0000
vn 0.7598 -0.6501 -0.0000
vn 0.4054 -0.5854 0.7021
vn -0.4304 -0.5089 0.7455
vn -0.3799 -0.6501 0.6580
vn -0.8107 -0.5854 0.0000
vn -0.4304 -0.5089 -0.7455
vn -0.3799 -0.6501 -0.6580
vn 0.4054 -0.5854 -0.7021
vn 0.5721 -0.8202 -0.0000
vn 0.3118 -0.7817 0.5400
vn -0.2861 -0.8202 0.4955
vn -0.6236 -0.7817 -0.0000
vn -0.2861 -0.8202 -0.4955
vn 0.3118 -0.7817 -0.5400
vn 0.0000 1.0000 0.0000
vn 0.0000 1.0000 -0.0000
vn -0.0000 1.0000 -0.0000
vn -0.0000 1.0000 0.0000
# 43 vertex normals

vt 1.0000 1.0000 0.0000
vt 0.1667 1.0000 0.0000
vt 0.3333 1.0000 0.0000
vt 0.5000 1.0000 0.0000
vt 0.6667 1.0000 0.0000
vt 0.8333 1.0000 0.0000
vt 0.7917 1.0000 0.0000
vt 0.3750 1.0000 0.0000
vt 0.7083 1.0000 0.0000
vt 0.6250 1.0000 0.0000
vt 0.5417 1.0000 0.0000
vt 0.4583 1.0000 0.0000
vt 0.5833 1.0000 0.0000
# 13 texture coords

g Gengon001
usemtl wire_027177027
s 1
f 1/1/1 2/2/1 3/2/2 4/1/2 
s 2
f 2/2/3 5/3/3 6/3/4 3/2/4 
s 1
f 5/3/5 7/4/5 8/4/6 6/3/6 
s 4
f 7/4/7 9/5/7 10/5/8 8/4/8 
s 1
f 9/5/9 11/6/9 12/6/10 10/5/10 
s 8
f 11/6/11 1/1/11 4/1/12 12/6/12 
s 1
f 13/2/13 14/1/13 15/1/14 16/2/14 
s 8
f 14/1/15 17/6/15 18/6/16 15/1/16 
s 1
f 17/6/17 19/5/17 20/5/18 18/6/18 
s 4
f 19/5/19 21/4/19 22/4/20 20/5/20 
s 1
f 21/4/21 23/3/21 24/3/22 22/4/22 
s 2
f 23/3/23 13/2/23 16/2/24 24/3/24 
s 16
f 15/1/25 25/7/26 26/8/26 16/2/25 
s 8
f 18/6/16 27/9/27 25/7/27 15/1/16 
s 32
f 20/5/28 28/10/29 27/9/29 18/6/28 
s 4
f 22/4/20 29/11/30 28/10/30 20/5/20 
s 64
f 24/3/31 30/12/32 29/11/32 22/4/31 
s 2
f 24/3/24 16/2/24 26/8/33 30/12/33 
s 1
f 13/2/13 2/2/1 1/1/1 14/1/13 
s 2
f 23/3/23 5/3/3 2/2/3 13/2/23 
s 1
f 21/4/21 7/4/5 5/3/5 23/3/21 
s 4
f 19/5/19 9/5/7 7/4/7 21/4/19 
s 1
f 17/6/17 11/6/9 9/5/9 19/5/17 
s 8
f 14/1/15 1/1/11 11/6/11 17/6/15 
s 16
f 25/7/26 31/13/34 26/8/26 
s 8
f 27/9/27 31/13/35 25/7/27 
s 32
f 28/10/29 31/13/36 27/9/29 
s 4
f 29/11/30 31/13/37 28/10/30 
s 64
f 30/12/32 31/13/38 29/11/32 
s 2
f 26/8/33 31/13/39 30/12/33 
s 16
f 4/1/40 3/2/41 32/13/41 
f 3/2/41 6/3/42 32/13/41 
f 6/3/42 8/4/42 32/13/41 
f 8/4/42 10/5/43 32/13/41 
f 10/5/43 12/6/43 32/13/41 
f 12/6/43 4/1/40 32/13/41 
# 24 polygons - 12 triangles

